Coordinates
version=1
nRows=16
nColumns=34
inDegrees=no

Units are S.I. units (second, meters, Newtons, ...)
If the header above contains a line with 'inDegrees', this indicates whether rotational values are in degrees (yes) or radians (no).

endheader
time	pelvis_tilt	pelvis_list	pelvis_rotation	pelvis_tx	pelvis_ty	pelvis_tz	hip_flexion_r	hip_adduction_r	hip_rotation_r	knee_angle_r	ankle_angle_r	subtalar_angle_r	mtp_angle_r	hip_flexion_l	hip_adduction_l	hip_rotation_l	knee_angle_l	ankle_angle_l	subtalar_angle_l	mtp_angle_l	lumbar_extension	lumbar_bending	lumbar_rotation	arm_flex_r	arm_add_r	arm_rot_r	elbow_flex_r	pro_sup_r	arm_flex_l	arm_add_l	arm_rot_l	elbow_flex_l	pro_sup_l
0.46	0.0286544	-0.055529	-0.11157	0.348594	0.952134	-0.22661	-0.13957	0.0839013	-0.0510447	0.146793	0.41986	0.141998	0	0.455156	-0.127835	-0.120478	0.255109	0.0261418	0.131961	0	-0.132185	0.0608293	0.0686023	0.0905398	-0.206811	-0.161271	0.784517	2.09	-0.280921	-0.118295	-0.419879	0.472088	2.09
0.47	0.0299678	-0.0594821	-0.117754	0.360655	0.949906	-0.226314	-0.158153	0.0855024	-0.0437938	0.143276	0.429612	0.142528	0	0.445626	-0.130664	-0.113199	0.200366	0.0315195	0.127361	0	-0.135295	0.0642095	0.0726892	0.0993642	-0.209168	-0.15347	0.789265	2.09	-0.289281	-0.116286	-0.428759	0.474401	2.09
0.48	0.0307939	-0.0629638	-0.123312	0.372815	0.947586	-0.226163	-0.175615	0.0863453	-0.0376051	0.140925	0.439078	0.143366	0	0.436873	-0.132735	-0.0982031	0.15062	0.0358656	0.110193	0	-0.137724	0.0671629	0.075947	0.107411	-0.211103	-0.146059	0.793626	2.09	-0.296796	-0.11436	-0.437375	0.475991	2.09
0.49	0.0308355	-0.0657616	-0.128294	0.385058	0.945192	-0.226127	-0.191134	0.0862613	-0.0334543	0.140554	0.448734	0.145888	0	0.42999	-0.134707	-0.0806163	0.107993	0.0402743	0.0873884	0	-0.139139	0.069458	0.0787433	0.11429	-0.212463	-0.139757	0.797842	2.09	-0.30308	-0.112972	-0.444381	0.47625	2.09
0.5	0.0305787	-0.0674689	-0.132586	0.397385	0.942803	-0.226206	-0.20497	0.0847506	-0.0324806	0.142536	0.458894	0.151528	0	0.424315	-0.135801	-0.0593758	0.0727004	0.0420987	0.0557363	0	-0.140049	0.0705297	0.0808673	0.120105	-0.213137	-0.134397	0.801756	2.09	-0.308028	-0.112169	-0.450314	0.47533	2.09
0.51	0.0300526	-0.0679034	-0.13623	0.409783	0.940464	-0.226361	-0.217151	0.0818229	-0.0333052	0.146769	0.468713	0.158168	0	0.421235	-0.136287	-0.0444368	0.048101	0.0460498	0.0310335	0	-0.140467	0.0700829	0.0824988	0.124673	-0.212967	-0.130318	0.805418	2.09	-0.311493	-0.112203	-0.454774	0.473087	2.09
0.52	0.0295684	-0.0668192	-0.139141	0.42227	0.938231	-0.226594	-0.228138	0.0772889	-0.0352389	0.15296	0.477493	0.16454	0	0.420346	-0.135238	-0.0345379	0.0344105	0.0507708	0.0112599	0	-0.140644	0.0677637	0.083501	0.127968	-0.211884	-0.12745	0.808743	2.09	-0.313549	-0.11306	-0.458205	0.469751	2.09
0.53	0.0293321	-0.0640891	-0.14132	0.434875	0.936144	-0.226909	-0.238154	0.0708895	-0.0392878	0.161139	0.485354	0.172086	0	0.421048	-0.132092	-0.0271601	0.031061	0.0542518	-0.00756257	0	-0.140709	0.0633884	0.0838566	0.129871	-0.209898	-0.125746	0.811789	2.09	-0.314337	-0.114671	-0.460951	0.465604	2.09
0.54	0.0292026	-0.0598048	-0.142814	0.44762	0.934208	-0.227307	-0.247265	0.0627829	-0.0448067	0.170934	0.4917	0.1799	0	0.423469	-0.126929	-0.0234134	0.0378292	0.0569383	-0.0230409	0	-0.140429	0.0570872	0.0836653	0.13017	-0.207075	-0.125257	0.814676	2.09	-0.313996	-0.116973	-0.463054	0.46085	2.09
0.55	0.0287586	-0.0534912	-0.143827	0.460519	0.932375	-0.22785	-0.25261	0.0501372	-0.0714424	0.187171	0.504962	0.217106	0	0.427539	-0.119218	-0.0218762	0.0529167	0.0568185	-0.0380465	0	-0.139198	0.0485318	0.0830619	0.128644	-0.203588	-0.125968	0.817611	2.09	-0.312724	-0.119778	-0.464665	0.455804	2.09
0.56	0.0283633	-0.0469855	-0.144112	0.473633	0.930744	-0.228428	-0.261007	0.0403476	-0.0714683	0.197346	0.503945	0.213673	0	0.432854	-0.111213	-0.0266712	0.075632	0.0571195	-0.0433652	0	-0.137564	0.0395354	0.0819813	0.12532	-0.199553	-0.127475	0.820394	2.09	-0.310662	-0.122918	-0.466171	0.450764	2.09
0.57	0.027552	-0.0396353	-0.144037	0.486969	0.929251	-0.229122	-0.268332	0.0296264	-0.071961	0.208609	0.500567	0.209851	0	0.438885	-0.102282	-0.0344234	0.102497	0.053735	-0.0459263	0	-0.134872	0.0296316	0.0807246	0.120017	-0.195187	-0.129854	0.823232	2.09	-0.307946	-0.126182	-0.467512	0.445932	2.09
0.58	0.0262594	-0.0316486	-0.143705	0.500541	0.927901	-0.229945	-0.274489	0.0181729	-0.0725063	0.221018	0.494483	0.205286	0	0.445086	-0.0927571	-0.0444976	0.130999	0.0457806	-0.0463073	0	-0.131021	0.0191144	0.0793623	0.112801	-0.190654	-0.132836	0.825968	2.09	-0.304716	-0.129391	-0.468685	0.441477	2.09
0.59	0.024545	-0.0231275	-0.143224	0.514355	0.926713	-0.230906	-0.279391	0.006029	-0.0730029	0.234804	0.485427	0.200006	0	0.45079	-0.0827699	-0.0560042	0.158911	0.0331997	-0.0451274	0	-0.126055	0.00813075	0.0779893	0.103808	-0.186043	-0.136286	0.828378	2.09	-0.301086	-0.13246	-0.46937	0.437473	2.09
0.6	0.0225693	-0.0140928	-0.142643	0.528403	0.925719	-0.232007	-0.282948	-0.00685639	-0.0736161	0.250325	0.473149	0.194227	0	0.455404	-0.0722686	-0.0680438	0.184797	0.0172557	-0.0426679	0	-0.120155	-0.0032886	0.0766287	0.0932703	-0.181355	-0.140135	0.830148	2.09	-0.297143	-0.135381	-0.46903	0.433953	2.09
0.61	0.020553	-0.0045665	-0.141928	0.542668	0.924958	-0.233247	-0.285073	-0.0205109	-0.0746426	0.268022	0.457363	0.188149	0	0.458555	-0.0611585	-0.0799533	0.208251	0.000509387	-0.0388087	0	-0.113606	-0.0151299	0.0751981	0.081486	-0.176527	-0.144354	0.83095	2.09	-0.292951	-0.138187	-0.46714	0.430955	2.09
